<svg xmlns="http://www.w3.org/2000/svg" width="567.18" height="60.445" xml:space="preserve"><path fill="#FFF" d="M283.253 5.169v7.339h9.017v4.508h-9.017v10.059h-5.515V.623h14.977v4.545h-9.462zm30.293 21.905-2.124-5.886h-9.8l-1.937 5.886h-5.478L303.446.697l6.298-.148 9.91 26.526h-6.108zm-6.15-17.397c-.633-1.751-1.08-3.129-1.117-3.242-.036.112-.336 1.453-.932 3.242l-2.422 7.302h7.042l-2.571-7.302zm31.858 17.397h-15.649V.623h5.516v21.869h10.469l-.336 4.582zm24.888-1.265c-3.018 1.191-5.774 1.639-8.084 1.639-2.98 0-6.11-.521-8.645-2.087-3.725-2.197-5.998-6.407-5.998-11.438 0-5.29 2.235-8.867 5.104-10.953 2.646-1.9 5.926-2.72 9.65-2.72 2.125 0 4.882.335 7.563 1.267l-.446 4.545c-2.982-.894-5.104-1.192-7.191-1.192-2.644 0-4.694.597-6.258 1.9-1.752 1.453-2.757 3.837-2.757 6.744 0 5.29 3.39 9.276 9.313 9.276 2.086 0 4.582-.446 8.011-1.639l-.262 4.658zm26.083-.486c-2.272 1.453-5.104 2.124-8.122 2.124-3.392 0-6.445-1.044-8.681-2.794-3.167-2.46-5.031-6.334-5.031-11.103 0-5.216 2.535-9.016 6.148-11.177C376.887.92 379.419.249 382.55.249c4.396 0 8.084 1.416 10.506 4.135 2.049 2.236 3.316 5.253 3.316 8.942 0 5.143-2.349 9.577-6.147 11.997zm-1.789-17.918c-1.49-1.641-3.576-2.535-6.296-2.535-1.937 0-3.391.448-4.695 1.304-2.087 1.379-3.39 3.875-3.39 7.042 0 3.13 1.118 5.886 2.943 7.636 1.304 1.194 3.279 2.014 5.179 2.014h.186c1.975 0 3.727-.483 5.031-1.453 2.122-1.602 3.315-4.434 3.315-7.674 0-2.386-.819-4.733-2.273-6.334zm36.588 19.669h-6.11L405.91 8.559c.076.82.076 2.235.076 4.024v14.492h-5.218V.623h6.073l13.041 18.404a68.272 68.272 0 0 1-.074-3.167V.623h5.216v26.451zm10.518-5.304C435.542 5.191 449.1.698 456.228.698c8.057 0 20.529 5.423 20.529 20.917v17.663c0 15.65-12.396 20.918-20.375 20.918-8.058 0-20.84-5.268-20.84-20.918V21.77zm11.543 17.818c0 5.191 2.79 10.46 9.064 10.46 6.431 0 9.063-6.042 9.063-10.46V21.305c0-3.253-1.239-10.458-9.141-10.458-6.431 0-8.987 5.5-8.987 10.537v18.204zm35.789-22.233C483.184 4.882 493.488.698 500.927.698c10.068 0 16.811 6.818 16.811 15.108 0 7.049-4.727 10.381-7.672 12.008 10.461 3.564 11.002 11.853 11.002 14.409 0 10.228-9.063 17.974-20.298 17.974-6.274 0-13.247-2.48-16.81-7.67-2.557-3.486-3.177-7.747-3.333-10.381h11.621c.31 3.641 3.099 7.825 8.754 7.902 5.578 0 8.522-3.874 8.522-8.678 0-5.655-5.345-8.211-9.839-8.211h-4.648v-8.6h2.558c3.951 0 8.6-2.246 8.6-7.127 0-3.486-2.015-6.586-5.734-6.586-4.88 0-6.042 3.951-6.197 6.508h-11.39zm42.84 4.415c0-16.579 13.559-21.072 20.685-21.072 8.059 0 20.531 5.423 20.531 20.917v17.663c0 15.65-12.396 20.918-20.375 20.918-8.057 0-20.841-5.268-20.841-20.918V21.77zm11.545 17.818c0 5.191 2.789 10.46 9.064 10.46 6.429 0 9.063-6.042 9.063-10.46V21.305c0-3.253-1.239-10.458-9.143-10.458-6.43 0-8.985 5.5-8.985 10.537v18.204zM104.754 3.279c2.31-2.955 7.088-3.458 9.921-.981 1.158.976 1.97 2.323 2.384 3.771 5.245 18.046 10.512 36.083 15.75 54.13-3.096.002-6.192-.005-9.287.002-1.459-4.974-2.884-9.959-4.325-14.938-5.984-.018-11.968-.005-17.951-.007a2785.72 2785.72 0 0 0-4.351 14.947c-3.078-.013-6.156-.005-9.235-.008 4.982-17.213 9.97-34.427 14.977-51.636.595-1.798.818-3.81 2.117-5.28m5.463 11.057c-2.195 7.476-4.344 14.967-6.525 22.447 4.349.02 8.697.007 13.045.007-2.177-7.484-4.343-14.969-6.52-22.454zm59.734-10.669c1.612-2.339 4.73-3.477 7.475-2.754 2.514.58 4.437 2.745 5.101 5.184 5.239 18.034 10.496 36.059 15.733 54.087-3.099.027-6.197 0-9.296.015-1.44-4.979-2.866-9.967-4.317-14.942-5.975.002-11.948-.013-17.922.004-1.428 4.984-2.9 9.955-4.329 14.938-3.075.002-6.15 0-9.225.002 4.979-17.308 10.018-34.601 15.037-51.896.527-1.565.73-3.287 1.743-4.638m-.754 33.123c4.331.006 8.66.002 12.991.002-2.153-7.499-4.342-14.988-6.492-22.489-2.163 7.496-4.347 14.987-6.499 22.487zM125.879.824h33.585v9.059c-4.122.003-8.243-.005-12.364.003 0 16.771.003 33.542-.002 50.313h-8.857c0-16.771-.002-33.541.002-50.313-4.122-.008-8.243 0-12.365-.003.001-3.02-.001-6.038.001-9.059zm82.225.368c.851-.294 1.759-.394 2.657-.373 3.53.014 7.059.002 10.59.005 5.944.108 11.619 3.8 14.192 9.149 1.781 3.476 1.965 7.517 1.515 11.329-.307 3.991-1.983 7.98-5.05 10.625-1.621 1.446-3.64 2.321-5.374 3.604-.952.728-.998 2.134-.507 3.142 4.686 7.234 9.557 14.352 14.339 21.524-3.498.007-6.996-.01-10.494.007-4.581-6.879-9.113-13.793-13.674-20.681-1.341-1.959-1.704-4.557-.902-6.796.626-1.715 2.127-2.972 3.798-3.618 3.189-1.216 6.332-3.129 8.099-6.138 1.342-2.264 1.275-5.053.671-7.528-.709-3.213-3.84-5.743-7.148-5.631-2.289.017-4.575-.013-6.859.011-1.034-.024-2.007.875-1.995 1.925-.011 16.149.006 32.303-.004 48.455-2.975-.005-5.947 0-8.922-.005-.006-17.387.004-34.777-.006-52.163.015-3.049 2.184-5.917 5.074-6.843zm37.041-.368h9.389c-.003 19.794.003 39.583-.006 59.375-3.126-.008-6.254 0-9.383-.002V.824z"/><g fill="#fff"><path d="M26.18.701c1.486-.004 2.972 0 4.461-.002.005 3.495 0 6.992.002 10.486.015 2.918-.067 5.835-.188 8.752-.2 4.208-.463 8.429-1.16 12.587-.479 2.869-1.473 5.64-2.702 8.266-2.008 4.231-5.164 7.813-8.712 10.826-3.173 2.794-6.961 4.826-10.945 6.2-2.255.78-4.575 1.375-6.936 1.709.002-2.933.002-5.864 0-8.797 2.843-.428 5.577-1.438 8.114-2.771a29.29 29.29 0 0 0 8.005-6.259c2.357-2.606 4.235-5.625 5.66-8.83 1.679-3.684 2.577-7.665 3.188-11.649.766-5.066 1.085-10.194 1.203-15.312.019-1.733.005-3.469.01-5.206zm6.254.007c2.737-.019 5.474-.002 8.212-.007v58.822c-2.731.008-5.462-.012-8.193.015-.033-6.252-.004-12.51-.015-18.758-.002-13.357.006-26.715-.004-40.072zM42.473.701c1.479-.002 2.958-.004 4.435 0-.048 5.979.156 11.971.868 17.907.583 4.614 1.406 9.265 3.244 13.561 1.742 4.158 4.252 8.022 7.525 11.141 3.125 2.98 6.911 5.271 11.025 6.589 1.148.365 2.322.652 3.516.829-.001 2.933-.002 5.86 0 8.792-2.345-.317-4.644-.924-6.882-1.684-2.665-.927-5.242-2.128-7.609-3.67-1.728-1.108-3.3-2.44-4.809-3.826-2.489-2.297-4.715-4.903-6.388-7.857-1.308-2.3-2.262-4.783-3.011-7.316-.686-2.546-.977-5.182-1.243-7.797-.515-5.66-.707-11.347-.671-17.025V.701z"/><path d="M32.434.708c.01 13.357.002 26.715.005 40.07.009 6.25-.02 12.506.015 18.76 2.73-.025 5.462-.007 8.193-.015V.699c-2.738.006-5.476-.01-8.213.009M42.473.701v9.641c-.036 5.678.156 11.365.671 17.025.266 2.615.558 5.251 1.243 7.797.747 2.533 1.703 5.018 3.011 7.316 1.673 2.954 3.899 5.562 6.388 7.857 1.51 1.388 3.08 2.718 4.809 3.826 2.368 1.542 4.945 2.741 7.609 3.67 2.238.76 4.537 1.363 6.882 1.684-.002-2.932-.001-5.859 0-8.792a22.314 22.314 0 0 1-3.516-.829c-4.114-1.317-7.9-3.607-11.025-6.589-3.272-3.114-5.783-6.98-7.525-11.141-1.837-4.296-2.66-8.945-3.244-13.561-.713-5.937-.917-11.929-.868-17.907-1.479-.002-2.957 0-4.435.003"/></g></svg>