<svg width="568.93" height="116.14" enable-background="new -1 -1 568.929 116.145" version="1.1" viewBox="-1 -1 568.93 116.14" xmlns="http://www.w3.org/2000/svg" xmlns:xlink="http://www.w3.org/1999/xlink">
 <g fill="#fff">
  <path d="m309.46 13.469-7.131 21.726h3.521l7.146-20.979c.26-.959 1.043-1.659 1.963-1.659.931 0 1.713.7 1.974 1.659l6.041 17.746h-9.479v3.232h14.105l-7.132-21.726c-.684-2.396-2.893-4.146-5.51-4.146-2.607-.001-4.812 1.749-5.498 4.147zm4.178 13.492 1.248-3.706 1.301 3.706zm-.517-10.638-6.387 18.872h4.117l2.643-7.822v3.697h8.295l-4.926-14.747c-.25-.821-.996-3.182-1.873-3.182-.881 0-1.627 2.36-1.869 3.182zm-22.549-2.885h12.344v-3.53h-12.639c-3.408 0-6.172 2.771-6.172 6.18v12.936c0 3.409 2.764 6.172 6.172 6.172h12.639v-16.47h-9.992v3.234h6.461v9.702h-8.813c-1.627 0-2.936-1.315-2.936-2.938v-12.35c-.002-1.619 1.309-2.936 2.936-2.936zm2.351 9.406v3.531h2.055v.882h-2.055c-.486 0-.883-.396-.883-.882v-7.648c0-.486.396-.883.883-.883h9.992v-3.524h-11.461c-1.627 0-2.945 1.316-2.945 2.938v10.585c0 1.622 1.318 2.938 2.945 2.938h7.055v-7.938zm-22.631-9.406h12.344v-3.53h-12.641c-3.408 0-6.17 2.771-6.17 6.18v12.792c0 3.408 2.762 6.179 6.17 6.179h12.641v-3.531h-12.344c-1.621 0-2.938-1.314-2.938-2.938v-12.214c0-1.621 1.317-2.938 2.938-2.938zm9.695 8.523v-3.234h-8.227c0-.486.395-.883.883-.883h9.992v-3.524h-11.461c-1.621 0-2.936 1.316-2.936 2.938v4.703zm0 1.179v3.234h-8.227c0 .485.395.882.883.882h9.992v3.522h-11.461c-1.621 0-2.936-1.314-2.936-2.938v-4.703zm-30.203 4.407h-7.412v3.233h11.314.145c2.123-.076 3.82-1.827 3.82-3.966 0-2.189-1.773-3.972-3.965-3.972h-4.459c-1.803-.686-3.334-2.474-3.334-4.559 0-2.679 2.467-4.848 5.145-4.848h11.027v-3.528h-11.469c-4.541 0-8.225 3.69-8.225 8.233 0 4.55 3.979 8.234 8.521 8.234v-.038l.023.038h2.625c.32 0 .586.259.586.586 0 .326-.268.586-.586.586h-3.756zm4.862-9.993h7.42v-3.234h-11.316-.152c-2.123.076-3.818 1.827-3.818 3.966 0 2.198 1.779 3.973 3.973 3.973h4.459c1.803.692 3.326 2.473 3.326 4.558 0 2.68-2.465 4.849-5.146 4.849h-11.018v3.53h11.459c4.545 0 8.234-3.683 8.234-8.232 0-4.543-3.979-8.234-8.523-8.234v.046l-.029-.045h-2.619c-.328 0-.586-.259-.586-.586 0-.319.258-.586.586-.586z"/>
  <g>
   <path d="m260.67 47.433v52.173h-17.568v-19.273l-33.672-19.162v38.435h-17.569v-52.173h18.301l32.94 18.74v-18.74z"/>
   <path d="m433.25 47.179h18.262v52.509h-18.262z"/>
   <path d="m320.92 57.68h-30.004v10.502h36.004l-17.252 10.502h-18.752v10.502h48.756l-17.252 10.502h-49.506v-40.506l18.002-12.003h47.256z"/>
   <path d="m161.4 57.878h-29.836v10.439h35.803l-17.156 10.445h-18.647v10.442h48.484l-17.157 10.443h-49.23v-40.279l17.903-11.935h46.992z"/>
   <path d="m29.562 59.372 17.908-11.939h54.472l-17.163 10.449h-37.309v31.337h33.578v-12.685h-20.893l17.162-10.445h21.641v21.638l-17.91 11.94h-51.486z"/>
   <path d="m422.09 89.034-17.502 10.654h-54.029l17.502-10.654h34.244v-10.652h-51.746v-20.547l17.502-10.656h54.791l-17.502 10.656h-35.767v9.89h52.507z"/>
   <path d="m402.3 89.034v-10.652h-51.746v-20.547l17.502-10.656h54.791l-17.502 10.656h-35.767v9.89h52.507v21.309l-17.502 10.654h-54.029l17.502-10.654z"/>
   <path d="m533.45 89.034-17.502 10.654h-54.031l17.503-10.654h34.245v-10.652h-51.748v-20.547l17.503-10.656h54.79l-17.502 10.656h-35.766v9.89h52.508z"/>
   <path d="m513.66 89.034v-10.652h-51.748v-20.547l17.503-10.656h54.79l-17.502 10.656h-35.766v9.89h52.508v21.309l-17.502 10.654h-54.031l17.503-10.654z"/>
  </g>
 </g>
</svg>
