<svg height="226.773" width="566.929" xmlns="http://www.w3.org/2000/svg"><path d="M0 0v15.517h110.352V0zm125.986 0v15.517h157.257S267.179 0 245.905 0zm188.105 0v15.517h95.139L403.583 0zm163.348 0-5.646 15.517h94.273V0zM0 30.173V45.69h110.352V30.173zm125.986.022v15.493h175.506s-2.052-11.941-5.625-15.493zm188.105 0v15.493h105.57l-5.229-15.493zm152.053 0-5.227 15.493h105.146V30.195zM31.712 60.346v15.535h47.791V60.346zm125.987 0v15.535h47.79V60.346zm94.275 0v15.535h47.79s3.034-8.205 3.034-15.535zm93.83 0v15.535h84.73l-5.648-15.535zm109.932 0-5.67 15.535h85.15V60.346zM31.712 90.542v15.517h47.791V90.542zm125.987 0v15.517h122.067s10.211-7.961 13.465-15.517zm188.105 0v15.517h47.791V97.42l3.033 8.638h87.543l3.256-8.638v8.638h47.789V90.542h-89.711l-4.762 13.144-4.783-13.144zM31.712 120.715v15.517h47.791v-15.517zm125.987 0v15.517h135.533c-3.256-7.529-13.465-15.517-13.465-15.517zm188.105 0v15.517h47.791v-15.517zm56.473 0 5.779 15.517h65.641l5.492-15.517zm85.15 0v15.517h47.789v-15.517zM31.712 150.888v15.515h47.791v-15.515zm125.987 0v15.515h47.79v-15.515zm94.275 0v15.515h50.824c0-7.322-3.034-15.515-3.034-15.515zm93.83 0v15.515h47.791v-15.515zm67.324 0 5.602 15.515h44.006l5.645-15.515zm74.299 0v15.515h47.789v-15.515zM.863 181.063V196.6h110.353v-15.537zm125.123 0V196.6h169.881c3.573-3.561 5.625-15.537 5.625-15.537zm188.971 0V196.6h78.641v-15.537zm109.044 0 5.758 15.537h22.389l5.404-15.537zm63.426 0V196.6h79.502v-15.537zM.863 211.257v15.517h110.353v-15.517zm125.123 0v15.493h119.919c21.275 0 37.338-15.493 37.338-15.493zm188.971 0v15.517h78.641v-15.517zm119.962 0 5.535 15.474.953.021 5.625-15.493zm52.508 0v15.517h79.502v-15.517z" fill="#fff"/></svg>