<svg version="1.0" viewBox="0 0 800 238.15" xml:space="preserve" xmlns="http://www.w3.org/2000/svg">
<g fill="#fff" fill-rule="evenodd">
	<polygon points="0 0 0 9.149 225.36 9.149 225.36 59.874 0 59.874 0 129.72 9.143 129.72 9.143 69.021 233.68 69.021 233.68 0"/>
	<polygon points="517.25 0 517.25 9.149 742.62 9.149 742.62 59.874 517.25 59.874 517.25 129.72 751.76 129.72 751.76 120.58 527.24 120.58 527.24 69.021 751.76 69.021 751.76 0"/>
	<polygon points="353.43 0 353.43 120.58 233.68 120.58 233.68 129.72 363.41 129.72 363.41 9.149 482.32 9.149 482.32 0"/>
	<polygon points="775.88 116.42 771.72 116.42 771.72 114.76 783.37 114.76 783.37 116.42 778.38 116.42 778.38 129.72 775.88 129.72"/>
	<polygon points="788.36 114.76 792.51 127.23 796.68 114.76 800 114.76 800 129.72 798.33 129.72 798.33 117.26 794.18 129.72 791.68 129.72 787.52 117.26 787.52 129.72 785.02 129.72 785.02 114.76"/>
</g><g fill="#fff"><path d="m189.72 175.41v45.711h7.1358v-41.331h6.6053s4.7984 0 6.4418 2.1459c1.396 1.8228 1.6513 5.1295 1.6513 7.3632 0 2.3892-0.15157 6.0828-0.9533 7.4349-1.2166 2.0662-3.2149 2.481-5.0417 2.481h-4.3597v4.0565h6.2703s5.656 0.23551 8.0891-2.2377c2.9836-3.0314 3.7414-7.1079 3.7414-12.564 0-4.958-1.7989-9.9598-5.4765-11.659-3.0434-1.4-8.5318-1.4-8.5318-1.4h-15.572"/><path d="m224.91 221.12h7.1346v-45.711h-7.1346v45.711z"/><path d="m270.01 186.07 13.055 34.215-7.4948 18.356h5.9232l21.583-52.571h-6.6133l-9.4014 25.623-8.7472-25.623h-8.3045"/><path d="m308.45 220.85v-4.3198s7.5466 0.29516 9.1182 0.29516c3.4821 0 5.2212-0.7419 6.5295-2.1459 0.77382-0.8416 1.4718-4.571 1.4718-5.8993 0-1.3242-0.25528-4.1881-0.77381-5.3608-0.53449-1.1487-1.751-2.2217-3.5739-2.3773-1.3003-0.11169-3.3106-0.37494-5.66-0.48264-3.2947-0.15572-5.4725-1.8747-6.5215-3.1112-1.0411-1.2365-2.4331-3.0992-2.4331-8.7991 0-5.7078 1.4758-8.9068 2.9556-10.391 1.4798-1.4918 3.6457-2.1459 5.309-2.4411 1.9146-0.32707 5.0417-0.34701 5.0417-0.34701l9.9877 0.29133v4.3198s-7.2834-0.29133-8.8509-0.29133c-3.4821 0-4.5272 0.74589-5.8315 2.1459-0.76982 0.83364-1.3721 3.1391-1.3721 4.4594 0 1.3282 0.15573 4.0086 0.67808 5.1694 0.51854 1.1488 1.7391 2.2257 3.5659 2.3892 1.2963 0.0996 3.3106 0.36297 5.656 0.47066 3.3106 0.15542 5.4845 1.8707 6.5215 3.1112 1.049 1.2405 2.4451 3.8531 2.4451 9.549 0 5.7078-1.4878 9.7843-2.9596 11.272-1.4838 1.4838-3.6457 2.1459-5.309 2.4331-1.9186 0.33107-5.0457 0.35501-5.0457 0.35501l-10.949-0.29517"/><path d="m347.38 179.79h-7.1318v33.557s0.17135 3.0633 0.34702 4.1403c0.1755 1.077 1.743 3.6337 5.8315 3.6337l7.3911-0.1436v-4.3038s-2.0023 0.14358-3.2109 0.14358c-1.2245 0-2.7083-0.0797-2.9596-2.1499-0.2674-2.0661-0.2674-4.5352-0.2674-4.5352v-19.76h8.0572v-4.2998h-8.0572v-6.2822"/><path d="m416.24 221.12h7.1322v-35.047h-7.1322v35.047z"/><path d="m416.24 181.77h7.1322v-6.3632h-7.1322v6.3632z"/><path d="m445.92 185.77c4.8543 0 8.6196 1.0849 10.642 2.7203 2.0422 1.6394 4.5511 5.0976 4.5511 15.105 0 10.008-2.5089 13.462-4.5511 15.105-2.0223 1.6354-5.7876 2.7283-10.642 2.7283-4.8662 0-8.6156-1.0929-10.654-2.7283-2.0382-1.6433-4.5352-5.0976-4.5352-15.105 0-10.008 2.4969-13.466 4.5352-15.105 2.0382-1.6354 5.7876-2.7203 10.654-2.7203zm-4.8902 6.721c-0.98123 1.2086-2.1778 3.7494-2.1778 11.105 0 7.3512 1.1966 9.896 2.1778 11.101 0.97722 1.1966 2.7801 2.0063 5.1135 2.0063 2.3374 0 4.1323-0.80972 5.1215-2.0063 0.97722-1.2046 2.1738-3.7494 2.1738-11.101 0-7.3552-1.1966-9.896-2.1738-11.105-0.98922-1.2006-2.7841-2.0023-5.1215-2.0023-2.3334 0-4.1363 0.80174-5.1135 2.0023"/><path d="m475.89 190.99 6.9962-0.29517c1.8308 0 3.9847 0.4946 5.0298 1.8188 0.97323 1.2485 1.5875 2.7363 1.5875 5.1335v23.43h7.1438v-24.02c0-4.5432-1.4-7.1837-3.4981-8.843-2.9915-2.3733-8.3524-2.1459-8.3524-2.1459l-15.983 0.2872v34.722h7.076v-30.087"/><path d="m402.03 179.79h-7.1358v33.557s0.16753 3.0633 0.33905 4.1403c0.17966 1.077 1.7351 3.6337 5.8395 3.6337l7.3911-0.1436v-4.3038s-2.0063 0.14358-3.2189 0.14358-2.7004-0.0797-2.9596-2.1499c-0.25528-2.0661-0.25528-4.5352-0.25528-4.5352v-19.76h8.0372v-4.2998h-8.0372v-6.2822"/><path d="m259.12 197.65c0-2.3972-0.61027-3.885-1.5915-5.1335-1.045-1.3242-3.191-1.8188-5.0258-1.8188l-9.4094 0.29517v-4.6349l11.324-0.2872s5.3608-0.22751 8.3564 2.1459c2.0901 1.6593 3.4781 4.2998 3.4781 8.843v23.685l-13.673 0.29517s-6.1905 0.0225-9.3096-1.2405c-3.0394-1.2365-4.6987-4.6309-4.6987-9.3415 0-4.5471 1.3921-7.1877 3.4821-8.847 2.9955-2.3773 8.3524-2.142 8.3524-2.142h4.3676v4.0366h-2.4491c-1.8348 0-3.7215 0.33904-4.7705 1.6633-0.97725 1.2365-1.4998 2.3095-1.4998 4.7067 0 3.1471 0.61027 4.5511 2.0901 5.6201 1.3083 0.95331 3.6497 1.1607 6.2623 1.1607l4.7146-0.28719v-18.719"/><path d="m379.43 197.65c0-2.3972-0.59831-3.885-1.5795-5.1335-1.057-1.3242-3.2029-1.8188-5.0258-1.8188l-9.4054 0.29517v-4.6349l11.316-0.2872s5.3568-0.22751 8.3484 2.1459c2.0901 1.6593 3.4861 4.2998 3.4861 8.843v23.685l-13.673 0.29517s-6.1984 0.0225-9.3096-1.2405c-3.0434-1.2365-4.7067-4.6309-4.7067-9.3415 0-4.5471 1.404-7.1877 3.4821-8.847 2.9915-2.3773 8.3603-2.142 8.3603-2.142h4.3636v4.0366h-2.453c-1.8228 0-3.7215 0.33904-4.7585 1.6633-0.98123 1.2365-1.5077 2.3095-1.5077 4.7067 0 3.1471 0.61427 4.5511 2.0901 5.6201 1.3043 0.95331 3.6576 1.1607 6.2702 1.1607l4.7027-0.28719v-18.719"/><path d="m509.58 221.4c1.8627 0 3.6138-0.72595 4.93-2.0342 1.3123-1.3203 2.0382-3.0713 2.0382-4.93 0-1.8627-0.72594-3.6138-2.0382-4.93-1.3163-1.3123-3.0673-2.0342-4.93-2.0342-3.8252 0-6.9643 3.1232-6.9643 6.9643 0 1.8587 0.71797 3.6098 2.0462 4.93 1.3203 1.3083 3.0633 2.0342 4.9181 2.0342zm-5.7956-6.9643c0-1.5476 0.61027-3.0035 1.6992-4.0964 1.1009-1.0929 2.5488-1.7032 4.0964-1.7032 1.5476 0 3.0075 0.61028 4.1004 1.7032 1.0889 1.0929 1.6992 2.5488 1.6992 4.0964 0 3.195-2.5966 5.7996-5.7996 5.7996-1.5476 0-2.9955-0.61027-4.0964-1.6992-1.0889-1.0969-1.6992-2.5488-1.6992-4.1004"/><path d="m513.01 217.68c-0.10371-0.0399-0.18349-0.15956-0.2272-0.33904-0.0319-0.12764-0.06-0.32309-0.0679-0.58635l-0.0319-1.0012c-0.016-0.47067-0.11584-0.80572-0.28335-1.0291-0.10754-0.15157-0.27124-0.27123-0.45871-0.38292 0.23134-0.15157 0.43876-0.33505 0.58635-0.56639 0.19559-0.31112 0.29899-0.70601 0.29899-1.1846 0-0.9174-0.38691-1.5636-1.1408-1.9026-0.39887-0.17964-0.8815-0.25942-1.4718-0.25942h-3.6018v7.754h1.3402v-3.179h2.118c0.38292 0 0.67011 0.0399 0.83365 0.11169 0.27507 0.13561 0.42281 0.41084 0.43876 0.82964l0.0596 1.2405c0.016 0.30314 0.0319 0.49461 0.0559 0.60629 0.0361 0.11966 0.0558 0.21539 0.0995 0.29517l0.0559 0.0957h1.4958v-0.45472l-0.0996-0.0479zm-1.5516-4.9939c0 0.43477-0.11167 0.72196-0.32706 0.88152-0.2473 0.16368-0.59033 0.25527-1.0211 0.25527h-2.1579v-2.1938h2.2895c0.30697 0 0.56241 0.0437 0.7459 0.13146 0.31908 0.15956 0.47065 0.47067 0.47065 0.92538"/><path d="m560.64 181.31c0.0957 5.2651-0.16338 8.0412-1.9305 10.69-1.5636 2.3134-4.6508 4.4394-11.48 4.4394l-8.472-0.26325c-1.3322 0.016-4.8064 0.41482-6.4418 2.1818-1.412 1.4998-1.5037 2.6405-1.6593 6.6811v11.815h28.806v5.8076h-31.487l-1.5038-0.0192c-2.1419 0-4.248-1.4519-4.248-4.3557v-8.815c0.1436-10.319 0.88948-11.803 3.1271-14.499 1.5516-1.8627 5.1853-3.9568 9.6208-4.1802 0.86954-0.0479 2.5169-0.15955 4.7984-0.076 1.6912 0.0559 3.3545 0.0996 4.0964 0.10752 3.9209 0.0479 5.3528-0.67408 6.4258-2.0821 1.2245-1.5875 1.8707-3.4502 1.8707-6.5096 0-2.8519-0.57438-5.5722-1.6673-6.8247-1.3282-1.4439-2.5847-2.4132-6.2782-2.4211-9.3017-0.0255-20.179 0.21539-20.179 0.21539v-5.4645s10.626-0.4627 21.467-0.62225c6.7529-0.1037 10.458 1.6792 12.353 4.1443 1.9864 2.5847 2.7004 5.0138 2.7801 10.052"/></g>
</svg>
