<svg enable-background="new 0 0 667 279.5" version="1.0" viewBox="0 0 667 279.5" xml:space="preserve" xmlns="http://www.w3.org/2000/svg">
<g fill="#fff">
		<path d="m520.96 224.8c6.157-0.256 12.684 0.695 12.684 8.244 0 5.463-4.03 8.521-9.277 8.521-6.147 0-9.268-4.398-9.031-10.229h-7.897c0.185 10.074 5.811 16.836 16.929 16.836 9.277 0 17.041-5.627 17.041-14.729 0-6.24-3.283-11.006-8.726-12.092v-0.102c4.563-1.709 6.772-5.625 6.772-10.424 0-8.51-7.672-12.846-15.119-12.846-9.736 0-15.588 6.965-15.956 16.406h7.774c-0.104-5.002 2.576-9.902 7.998-9.902 4.337 0 7.487 2.793 7.487 6.875 0 5.912-5.38 7.723-10.679 7.59v5.852z"/>
		<path d="m125.47 247.25h8.684v-18.863h13.103c14.074 0.063 16.78-9.072 16.78-15.158 0-6.146-2.706-15.25-16.78-15.25h-21.787v49.271zm8.684-42.275h12.765c4.567 0 8.475 1.719 8.475 8.193 0 6.207-4.741 8.182-8.648 8.182h-12.591v-16.375z"/>
		<rect x="169.19" y="197.98" width="7.891" height="49.271"/>
		<path d="m215.8 221.02c0-7.568-7.395-10.424-14.371-10.424-7.897 0-15.711 2.721-16.253 11.896h7.938c0.241-3.877 3.396-5.625 7.814-5.625 3.248 0 7.416 0.766 7.416 4.838 0 4.602-5.068 3.938-10.745 5-6.547 0.758-13.722 2.23-13.722 11.141 0 6.936 5.83 10.412 12.233 10.412 4.199 0 9.226-1.34 12.382-4.367 0.604 3.324 2.93 4.367 6.04 4.367 1.33 0 3.866-0.521 4.956-0.85v-5.482c-0.767 0.123-1.448 0.123-1.841 0.123-1.488 0-1.846-0.756-1.846-2.721v-18.308zm-8.004 14.268c0 4.963-5.35 6.762-8.827 6.762-2.788 0-7.237-1.012-7.237-4.563 0-4.174 3.038-5.4 6.439-5.891 3.437-0.613 7.237-0.613 9.625-2.168v5.86z"/>
		<path d="m232.62 247.22-0.899 2.762c-0.941 2.955-1.887 4.971-5.575 4.971-1.232 0-2.501-0.275-3.728-0.572v6.709c1.774 0.195 3.657 0.359 5.467 0.359 8.254 0 10.091-5.779 12.663-12.152l13.901-37.713h-8.295l-9.007 26.656h-0.148l-9.334-26.656h-8.546l13.501 35.636z"/>
		<path d="m256.1 230.88c0.179 12.273 9.298 17.594 20.591 17.594 9.814 0 19.587-4.43 19.587-15.426 0-5.145-3.079-10.637-9.594-12.682-2.537-0.688-13.43-3.488-14.192-3.715-3.539-1.021-5.927-2.895-5.927-6.371 0-5.002 5.028-6.455 9.078-6.455 5.943 0 10.245 2.342 10.684 8.787h8.572c0-10.352-8.572-15.814-18.887-15.814-8.935 0-18.059 4.604-18.059 14.504 0 5.115 2.45 10.281 10.925 12.51 6.766 1.842 11.261 2.773 14.729 4.092 2.03 0.809 4.097 2.322 4.097 6.004 0 3.816-2.864 7.539-10.464 7.539-6.915 0-12.52-2.967-12.52-10.566h-8.62z"/>
		<path d="m299.13 211.58h5.907v-10.74h7.928v10.74h7.093v5.861h-7.093v19.055c0 3.264 0.317 4.941 3.764 4.941 1.12 0 2.24 0 3.33-0.234v6.014c-1.749 0.193-3.375 0.398-5.068 0.398-8.214 0-9.804-3.119-9.953-9.113v-21.061h-5.907v-5.861z"/>
		<path d="m356.31 221.02c0-7.568-7.375-10.424-14.361-10.424-7.815 0-15.67 2.721-16.212 11.896h7.927c0.328-3.877 3.406-5.625 7.886-5.625 3.156 0 7.355 0.766 7.355 4.838 0 4.602-5.038 3.938-10.746 5-6.597 0.758-13.722 2.23-13.722 11.141 0 6.936 5.825 10.412 12.193 10.412 4.229 0 9.267-1.34 12.412-4.367 0.619 3.324 2.9 4.367 6.158 4.367 1.227 0 3.718-0.521 4.919-0.85v-5.482c-0.833 0.123-1.529 0.123-1.958 0.123-1.442 0-1.852-0.756-1.852-2.721v-18.308zm-7.887 14.268c0 4.963-5.385 6.762-8.863 6.762-2.741 0-7.237-1.012-7.237-4.563 0-4.174 2.997-5.4 6.398-5.891 3.478-0.613 7.283-0.613 9.702-2.168v5.86z"/>
		<path d="m360.88 211.58h5.927v-10.74h7.927v10.74h7.094v5.861h-7.094v19.055c0 3.264 0.266 4.941 3.774 4.941 1.078 0 2.199 0 3.319-0.234v6.014c-1.698 0.193-3.396 0.398-5.1 0.398-8.244 0-9.773-3.119-9.921-9.113v-21.061h-5.927v-5.861z"/>
		<rect x="388.59" y="211.58" width="7.887" height="35.668"/>
		<path d="m420.43 248.26c11.467 0 18.023-7.855 18.023-18.83 0-10.945-6.557-18.832-18.023-18.832-11.497 0-18.043 7.887-18.043 18.832 0 10.974 6.546 18.83 18.043 18.83zm0-6.209c-7.098 0-10.167-6.383-10.167-12.621 0-6.18 3.069-12.561 10.167-12.561 7.018 0 10.137 6.381 10.137 12.561-1e-3 6.238-3.12 12.621-10.137 12.621z"/>
		<path d="m444.4 247.25h7.855v-21.031c0-5.195 3.366-9.348 8.664-9.348 4.603 0 6.813 2.371 6.935 7.926v22.453h7.917v-24.488c0-7.979-4.909-12.162-12.683-12.162-4.654 0-8.776 2.434-11.109 6.414l-0.174-0.143v-5.289h-7.405v35.668z"/>
		<rect x="388.59" y="197.98" width="7.887" height="7.455"/>
		<g fill="#fff">
			<path d="m421.66 19.551h-82.591c-25.474 0-37.958 15.741-37.958 36.179v62.087c0 12.684-5.989 21.788-18.631 21.788h-72.24c-0.506 0-0.925 0.419-0.925 0.9v12.53c0 0.512 0.419 0.941 0.925 0.941h81.768c25.464 0 37.979-15.67 37.979-36.118v-62.128c0-12.694 5.943-21.818 18.657-21.818h73.017c0.573 0 1.023-0.409 1.023-0.921v-12.509c0-0.491-0.451-0.931-1.024-0.931z"/>
			<path d="m178.54 19.551h-158.93c-0.578 0-0.998 0.44-0.998 0.931v12.509c0 0.512 0.419 0.941 0.998 0.941h149.37c12.627 0 18.621 9.104 18.621 21.797 0 12.643-5.994 21.726-18.621 21.726h-118.17c-18.351 0-32.2 15.415-32.2 35.862v39.687c0 0.543 0.419 0.973 0.998 0.973h26.927c0.527 0 0.967-0.43 0.967-0.973v-39.687c0-12.612 7.247-21.511 17.762-21.511h113.28c25.423 0 37.887-15.62 37.887-36.067 0-20.415-12.464-36.188-37.887-36.188z"/>
			<path d="m636.41 85.086c-0.356-0.399-0.356-1.084 0-1.473 7.917-6.557 11.835-16.438 11.835-27.874 0-20.416-12.438-36.188-37.938-36.188h-158.89c-0.542 0-0.94 0.44-0.94 0.972v12.468c0 0.512 0.398 0.941 0.94 0.941h149.35c12.591 0 18.667 9.104 18.667 21.797 0 12.643-6.035 21.726-18.667 21.726h-0.185l-149.16 0.031c-0.542 0-0.94 0.389-0.94 0.961v12.459c0 0.501 0.398 0.9 0.94 0.9h149.35c16.468 0.194 18.636 16.232 18.636 24.436l0.031 1.544c0 12.714-6.076 21.859-18.667 21.859h-149.35c-0.542 0-0.94 0.388-0.94 0.899v12.49c0 0.512 0.398 0.941 0.94 0.941h158.89c25.521 0 37.938-16.939 37.938-36.189v-1.544c-1e-3 -12.274-3.919-23.996-11.836-31.156z"/>
		</g>
</g>
</svg>
