<svg version="1.0" viewBox="0 0 990 445" xmlns="http://www.w3.org/2000/svg">
 <path d="m167 430.01c-18.173-4.9898-35.889-21.828-43.638-41.478-5.1947-13.172-23.966-79.255-89.761-316l-9.866-35.5 44.518-0.26043c24.485-0.14324 44.831 0.08176 45.214 0.5 0.38298 0.41824 17.05 64.935 37.038 143.37l36.342 142.61 17.274-66.11c41.021-156.99 47.988-182.31 53.165-193.18 6.9764-14.653 19.169-25.124 33.647-28.895 7.6282-1.9869 25.207-2.0081 32.765-0.03952 15.955 4.1557 28.425 15.66 35.291 32.555 4.1866 10.303 13.196 43.473 46.844 172.45 11.335 43.45 20.935 79.786 21.334 80.746 0.45144 1.0868 14.501-52.221 37.225-141.24l36.5-142.99 45.219-0.00616c35.741-0.00487 45.128 0.25583 44.786 1.2438-0.23787 0.6875-9.8666 35.225-21.397 76.75-55.103 198.44-74.286 265.08-79.688 276.84-9.1764 19.969-24.597 33.845-42.914 38.616-7.6516 1.993-24.288 2.0115-31.874 0.0355-10.565-2.7518-16.608-6.3892-25.672-15.452-7.0792-7.0786-9.3389-10.166-13.206-18.04-6.3222-12.874-12.416-33.87-51.226-176.5-9.1291-33.55-16.85-61.675-17.158-62.5-0.30786-0.825-9.7278 31.98-20.933 72.9-24.628 89.937-37.601 136.4-41.633 149.1-8.7139 27.454-24.558 45.03-45.447 50.416-7.5331 1.9423-25.774 1.9769-32.748 0.0622zm468.39-137.98v-136.5h42.5 42.5v136.5 136.5h-42.5-42.5v-136.5zm171 0v-136.5h42.5 42.5v136.5 136.5h-42.5-42.5v-136.5zm117 123v-13.5h-5c-4.6667 0-5-0.1667-5-2.5v-2.5h13 13v2.5c0 2.3333-0.33333 2.5-5 2.5h-5v13.5 13.5h-3-3v-13.5zm18-2.5v-16h4.4571 4.457l3.043 9.8608c1.6736 5.4235 3.0429 10.464 3.0429 11.2 0 3.122 1.9536-1.1785 4.9111-10.811l3.1471-10.25h4.4709 4.4709v16 16h-3-3l-0.0789-11.25c-0.0854-12.162-0.036-12.191-4.4445 2.5575-2.6306 8.8004-2.6353 8.8073-5.7742 8.5-3.0793-0.3014-3.2016-0.5155-6.1719-10.808l-3.0304-10.5-0.56766 21.5h-2.9662-2.9662v-16zm-275.5-304.1c-19.261-3.9025-35.21-20.392-38.481-39.785-3.9851-23.626 11.769-47.393 35.516-53.578 12.119-3.1566 27.642-1.5172 38.702 4.0873 6.6239 3.3566 16.688 12.99 20.078 19.217 11.64 21.387 4.7449 49.29-15.371 62.199-11.153 7.157-27.875 10.407-40.444 7.8604zm171 0c-24.943-5.0537-42.598-29.911-38.57-54.303 3.09-18.711 17.291-34.29 35.605-39.06 12.108-3.1537 27.643-1.517 38.678 4.075 6.6477 3.3686 16.028 12.322 19.779 18.878 12.048 21.058 5.1906 49.562-15.048 62.549-11.153 7.157-27.875 10.407-40.444 7.8604z" fill="#fff"/>
</svg>
